<?xml version="1.0" encoding="utf-8"?>
<!-- Generator: Adobe Illustrator 22.1.0, SVG Export Plug-In . SVG Version: 6.00 Build 0)  -->
<svg version="1.1" id="Layer_1" xmlns="http://www.w3.org/2000/svg" xmlns:xlink="http://www.w3.org/1999/xlink" x="0px" y="0px"
	 viewBox="0 0 935.2 935.2" style="enable-background:new 0 0 935.2 935.2;" xml:space="preserve">
<style type="text/css">
	.st0{fill:#44841a;}
</style>
<path class="st0" d="M937.5,467.7c0,258.3-209.9,467.6-468.8,467.6C209.9,935.2,0,725.9,0,467.6S209.9,0,468.8,0c124.3,0,243.6,49.3,331.5,137
	C888.1,224.6,937.5,343.6,937.5,467.7L937.5,467.7z M281.9,362.7h85.6c2.6-0.1,4.7-2.2,4.8-4.8c7.2-47.6,48.2-82.8,96.4-82.8
	s89.2,35.2,96.4,82.8c0.2,2.7,2.4,4.7,5.1,4.8h85.2c2.6,0,4.8-2.1,4.8-4.8c0,0,0,0,0,0c-7.6-99.9-91.1-177.1-191.5-177.1
	c-100.4,0-183.9,77.2-191.5,177.1C277.1,360.6,279.2,362.7,281.9,362.7C281.9,362.7,281.9,362.7,281.9,362.7L281.9,362.7z
	 M560.6,540.3c57-31.1,94.3-88.9,99.2-153.6c0-2.6-2.1-4.8-4.8-4.8c0,0,0,0-0.1,0h-85.2c-2.6,0.1-4.7,2.2-4.8,4.8
	c-7.1,47.6-48.1,82.9-96.4,82.9s-89.2-35.2-96.3-82.9c-0.1-2.6-2.2-4.7-4.8-4.8h-85.6c-2.6,0-4.7,2.1-4.8,4.8
	c4.9,64.7,42.2,122.5,99.2,153.6c-60,32.7-98.1,94.9-99.8,163.2c0,2.6,2.1,4.8,4.7,4.8c0,0,0.1,0,0.1,0h85.1c2.6,0,4.8-2.1,4.8-4.8
	c2.1-52.2,45.1-93.5,97.4-93.4c52.3-0.1,95.3,41.2,97.4,93.4c0,2.6,2.2,4.8,4.8,4.8h85c2.7,0,4.8-2.2,4.8-4.8
	c-1.7-68.3-39.8-130.6-99.9-163.2L560.6,540.3z M1265.8,253.1c81.8"/>
</svg>
